<svg id="deco-footer" xmlns="http://www.w3.org/2000/svg" xmlns:xlink="http://www.w3.org/1999/xlink" width="410.409" height="1008.671" viewBox="0 0 410.409 1008.671">
  <defs>
    <style>
      .cls-1, .cls-7 {
        fill: #799be8;
      }

      .cls-1, .cls-2, .cls-3, .cls-4, .cls-5 {
        stroke: #707070;
      }

      .cls-2, .cls-9 {
        fill: #dd919e;
      }

      .cls-12, .cls-3 {
        fill: #dcb36a;
      }

      .cls-15, .cls-4 {
        fill: #493e5b;
      }

      .cls-17, .cls-5 {
        fill: #d13978;
      }

      .cls-6 {
        clip-path: url(#clip-path);
      }

      .cls-8 {
        clip-path: url(#clip-path-2);
      }

      .cls-10 {
        clip-path: url(#clip-path-4);
      }

      .cls-11 {
        clip-path: url(#clip-path-5);
      }

      .cls-13 {
        clip-path: url(#clip-path-6);
      }

      .cls-14 {
        clip-path: url(#clip-path-7);
      }

      .cls-16 {
        clip-path: url(#clip-path-8);
      }

      .cls-18 {
        clip-path: url(#clip-path-9);
      }

      .cls-19 {
        clip-path: url(#clip-path-10);
      }
    </style>
    <clipPath id="clip-path">
      <rect id="Rectangle_4" data-name="Rectangle 4" class="cls-1" width="63.556" height="63.556" transform="translate(1403 577)"/>
    </clipPath>
    <clipPath id="clip-path-2">
      <rect id="Rectangle_4-2" data-name="Rectangle 4" class="cls-2" width="63.556" height="63.556" transform="translate(1403 577)"/>
    </clipPath>
    <clipPath id="clip-path-4">
      <rect id="Rectangle_4-4" data-name="Rectangle 4" class="cls-2" width="63.556" height="63.556" transform="translate(0 0)"/>
    </clipPath>
    <clipPath id="clip-path-5">
      <rect id="Rectangle_4-5" data-name="Rectangle 4" class="cls-3" width="63.556" height="63.556" transform="translate(0 0)"/>
    </clipPath>
    <clipPath id="clip-path-6">
      <rect id="Rectangle_19" data-name="Rectangle 19" class="cls-1" width="38" height="38" transform="translate(587 583)"/>
    </clipPath>
    <clipPath id="clip-path-7">
      <rect id="Rectangle_20" data-name="Rectangle 20" class="cls-4" width="38" height="38" transform="translate(587 583)"/>
    </clipPath>
    <clipPath id="clip-path-8">
      <rect id="Rectangle_21" data-name="Rectangle 21" class="cls-5" width="48" height="48" transform="translate(876 503.011)"/>
    </clipPath>
    <clipPath id="clip-path-9">
      <rect id="Rectangle_22" data-name="Rectangle 22" class="cls-1" width="48" height="48" transform="translate(876 503.011)"/>
    </clipPath>
    <clipPath id="clip-path-10">
      <rect id="Rectangle_23" data-name="Rectangle 23" class="cls-3" width="59.9" height="59.9" transform="translate(587 583)"/>
    </clipPath>
  </defs>
  <g id="déco_footer" data-name="déco footer" transform="translate(-1375.48 122.578)">
    <g id="déco_plante" data-name="déco plante" transform="translate(-1 -13.609)">
      <g id="Groupe_de_masques_4" data-name="Groupe de masques 4" class="cls-6" transform="translate(139.548 324.67) rotate(-15)">
        <path id="seedling-solid" class="cls-7" d="M7.944,14.694H0A27.808,27.808,0,0,0,27.806,42.5V60.375a1.992,1.992,0,0,0,1.986,1.986h3.972a1.992,1.992,0,0,0,1.986-1.986V42.5A27.808,27.808,0,0,0,7.944,14.694ZM55.611,6.75a27.783,27.783,0,0,0-24.293,14.3,31.825,31.825,0,0,1,7.324,13.357A27.814,27.814,0,0,0,63.556,6.75Z" transform="translate(1403 574.222)"/>
      </g>
      <g id="Composant_3_1882" data-name="Composant 3 – 1882" transform="translate(1687 572.39)">
        <rect id="Rectangle_7" data-name="Rectangle 7" class="cls-7" width="8.112" height="23.703" rx="3" transform="translate(0 1.333) rotate(-9)"/>
      </g>
      <g id="Composant_3_1883" data-name="Composant 3 – 1883" transform="matrix(0.995, 0.105, -0.105, 0.995, 1692.092, 600.163)">
        <rect id="Rectangle_7-2" data-name="Rectangle 7" class="cls-7" width="8.112" height="23.703" rx="3" transform="translate(0 1.333) rotate(-9)"/>
      </g>
      <g id="Composant_3_1884" data-name="Composant 3 – 1884" transform="matrix(0.995, 0.105, -0.105, 0.995, 1693.811, 629.005)">
        <rect id="Rectangle_7-3" data-name="Rectangle 7" class="cls-7" width="8.112" height="23.703" rx="3" transform="translate(0 1.333) rotate(-9)"/>
      </g>
      <g id="Composant_3_1885" data-name="Composant 3 – 1885" transform="matrix(0.97, 0.242, -0.242, 0.97, 1695.652, 658.022)">
        <rect id="Rectangle_7-4" data-name="Rectangle 7" class="cls-7" width="8.112" height="23.703" rx="3" transform="translate(0 1.333) rotate(-9)"/>
      </g>
      <g id="Composant_3_1886" data-name="Composant 3 – 1886" transform="matrix(0.946, 0.326, -0.326, 0.946, 1691.347, 688.024)">
        <rect id="Rectangle_7-5" data-name="Rectangle 7" class="cls-7" width="8.112" height="23.703" rx="3" transform="translate(0 1.333) rotate(-9)"/>
      </g>
      <g id="Composant_3_1887" data-name="Composant 3 – 1887" transform="translate(1686.08 718.377) rotate(25)">
        <rect id="Rectangle_7-6" data-name="Rectangle 7" class="cls-7" width="8.112" height="23.703" rx="3" transform="translate(0 1.333) rotate(-9)"/>
      </g>
      <g id="Composant_3_1888" data-name="Composant 3 – 1888" transform="translate(1679.207 748.702) rotate(25)">
        <rect id="Rectangle_7-7" data-name="Rectangle 7" class="cls-7" width="8.112" height="23.703" rx="3" transform="translate(0 1.333) rotate(-9)"/>
      </g>
      <g id="Composant_3_1889" data-name="Composant 3 – 1889" transform="translate(1671.307 778.027) rotate(22)">
        <rect id="Rectangle_7-8" data-name="Rectangle 7" class="cls-7" width="8.112" height="23.703" rx="3" transform="translate(0 1.333) rotate(-9)"/>
      </g>
      <g id="Composant_3_1890" data-name="Composant 3 – 1890" transform="translate(1664.844 807.316) rotate(21)">
        <rect id="Rectangle_7-9" data-name="Rectangle 7" class="cls-7" width="8.112" height="23.703" rx="3" transform="translate(0 1.333) rotate(-9)"/>
      </g>
      <g id="Composant_3_1891" data-name="Composant 3 – 1891" transform="translate(1659.022 837.703) rotate(17)">
        <rect id="Rectangle_7-10" data-name="Rectangle 7" class="cls-7" width="8.112" height="23.703" rx="3" transform="translate(0 1.333) rotate(-9)"/>
      </g>
      <g id="Composant_3_1892" data-name="Composant 3 – 1892" transform="matrix(0.978, 0.208, -0.208, 0.978, 1655.588, 865.98)">
        <rect id="Rectangle_7-11" data-name="Rectangle 7" class="cls-7" width="8.112" height="23.703" rx="3" transform="translate(0 1.333) rotate(-9)"/>
      </g>
    </g>
    <g id="déco_plante-2" data-name="déco plante" transform="translate(-94 140.391)">
      <g id="Groupe_de_masques_4-2" data-name="Groupe de masques 4" class="cls-8" transform="translate(139.548 324.67) rotate(-15)">
        <path id="seedling-solid-2" data-name="seedling-solid" class="cls-9" d="M7.944,14.694H0A27.808,27.808,0,0,0,27.806,42.5V60.375a1.992,1.992,0,0,0,1.986,1.986h3.972a1.992,1.992,0,0,0,1.986-1.986V42.5A27.808,27.808,0,0,0,7.944,14.694ZM55.611,6.75a27.783,27.783,0,0,0-24.293,14.3,31.825,31.825,0,0,1,7.324,13.357A27.814,27.814,0,0,0,63.556,6.75Z" transform="translate(1403 574.222)"/>
      </g>
      <g id="Composant_3_1893" data-name="Composant 3 – 1893" transform="translate(1687 572.39)">
        <rect id="Rectangle_7-12" data-name="Rectangle 7" class="cls-9" width="8.112" height="23.703" rx="3" transform="translate(0 1.333) rotate(-9)"/>
      </g>
      <g id="Composant_3_1894" data-name="Composant 3 – 1894" transform="matrix(0.995, 0.105, -0.105, 0.995, 1692.092, 600.163)">
        <rect id="Rectangle_7-13" data-name="Rectangle 7" class="cls-9" width="8.112" height="23.703" rx="3" transform="translate(0 1.333) rotate(-9)"/>
      </g>
      <g id="Composant_3_1895" data-name="Composant 3 – 1895" transform="matrix(0.995, 0.105, -0.105, 0.995, 1693.811, 629.005)">
        <rect id="Rectangle_7-14" data-name="Rectangle 7" class="cls-9" width="8.112" height="23.703" rx="3" transform="translate(0 1.333) rotate(-9)"/>
      </g>
      <g id="Composant_3_1896" data-name="Composant 3 – 1896" transform="matrix(0.97, 0.242, -0.242, 0.97, 1695.652, 658.022)">
        <rect id="Rectangle_7-15" data-name="Rectangle 7" class="cls-9" width="8.112" height="23.703" rx="3" transform="translate(0 1.333) rotate(-9)"/>
      </g>
      <g id="Composant_3_1897" data-name="Composant 3 – 1897" transform="matrix(0.946, 0.326, -0.326, 0.946, 1691.347, 688.024)">
        <rect id="Rectangle_7-16" data-name="Rectangle 7" class="cls-9" width="8.112" height="23.703" rx="3" transform="translate(0 1.333) rotate(-9)"/>
      </g>
      <g id="Composant_3_1898" data-name="Composant 3 – 1898" transform="translate(1686.08 718.377) rotate(25)">
        <rect id="Rectangle_7-17" data-name="Rectangle 7" class="cls-9" width="8.112" height="23.703" rx="3" transform="translate(0 1.333) rotate(-9)"/>
      </g>
    </g>
    <g id="déco_plante-3" data-name="déco plante" transform="translate(-268.6 48.391)">
      <g id="Groupe_de_masques_4-3" data-name="Groupe de masques 4" class="cls-8" transform="translate(139.548 324.67) rotate(-15)">
        <path id="seedling-solid-3" data-name="seedling-solid" class="cls-9" d="M7.944,14.694H0A27.808,27.808,0,0,0,27.806,42.5V60.375a1.992,1.992,0,0,0,1.986,1.986h3.972a1.992,1.992,0,0,0,1.986-1.986V42.5A27.808,27.808,0,0,0,7.944,14.694ZM55.611,6.75a27.783,27.783,0,0,0-24.293,14.3,31.825,31.825,0,0,1,7.324,13.357A27.814,27.814,0,0,0,63.556,6.75Z" transform="translate(1403 574.222)"/>
      </g>
      <g id="Composant_3_1904" data-name="Composant 3 – 1904" transform="translate(1687 572.39)">
        <rect id="Rectangle_7-18" data-name="Rectangle 7" class="cls-9" width="8.112" height="23.703" rx="3" transform="translate(0 1.333) rotate(-9)"/>
      </g>
      <g id="Composant_3_1905" data-name="Composant 3 – 1905" transform="matrix(0.995, 0.105, -0.105, 0.995, 1692.092, 600.163)">
        <rect id="Rectangle_7-19" data-name="Rectangle 7" class="cls-9" width="8.112" height="23.703" rx="3" transform="translate(0 1.333) rotate(-9)"/>
      </g>
      <g id="Composant_3_1906" data-name="Composant 3 – 1906" transform="matrix(0.995, 0.105, -0.105, 0.995, 1693.811, 629.005)">
        <rect id="Rectangle_7-20" data-name="Rectangle 7" class="cls-9" width="8.112" height="23.703" rx="3" transform="translate(0 1.333) rotate(-9)"/>
      </g>
      <g id="Composant_3_1907" data-name="Composant 3 – 1907" transform="matrix(0.97, 0.242, -0.242, 0.97, 1695.652, 658.022)">
        <rect id="Rectangle_7-21" data-name="Rectangle 7" class="cls-9" width="8.112" height="23.703" rx="3" transform="translate(0 1.333) rotate(-9)"/>
      </g>
      <g id="Composant_3_1908" data-name="Composant 3 – 1908" transform="matrix(0.946, 0.326, -0.326, 0.946, 1691.347, 688.024)">
        <rect id="Rectangle_7-22" data-name="Rectangle 7" class="cls-9" width="8.112" height="23.703" rx="3" transform="translate(0 1.333) rotate(-9)"/>
      </g>
      <g id="Composant_3_1909" data-name="Composant 3 – 1909" transform="translate(1686.08 718.377) rotate(25)">
        <rect id="Rectangle_7-23" data-name="Rectangle 7" class="cls-9" width="8.112" height="23.703" rx="3" transform="translate(0 1.333) rotate(-9)"/>
      </g>
      <g id="Composant_3_1910" data-name="Composant 3 – 1910" transform="translate(1679.207 748.702) rotate(25)">
        <rect id="Rectangle_7-24" data-name="Rectangle 7" class="cls-9" width="8.112" height="23.703" rx="3" transform="translate(0 1.333) rotate(-9)"/>
      </g>
      <g id="Composant_3_1911" data-name="Composant 3 – 1911" transform="translate(1671.307 778.027) rotate(22)">
        <rect id="Rectangle_7-25" data-name="Rectangle 7" class="cls-9" width="8.112" height="23.703" rx="3" transform="translate(0 1.333) rotate(-9)"/>
      </g>
      <g id="Composant_3_1912" data-name="Composant 3 – 1912" transform="translate(1664.844 807.316) rotate(21)">
        <rect id="Rectangle_7-26" data-name="Rectangle 7" class="cls-9" width="8.112" height="23.703" rx="3" transform="translate(0 1.333) rotate(-9)"/>
      </g>
    </g>
    <g id="déco_plante-4" data-name="déco plante" transform="translate(233.68 299.585)">
      <g id="Groupe_de_masques_4-4" data-name="Groupe de masques 4" class="cls-10" transform="translate(1552.209 498.953) rotate(-180)">
        <path id="seedling-solid-4" data-name="seedling-solid" class="cls-9" d="M7.945,47.667H0A27.808,27.808,0,0,1,27.806,19.861V1.986A1.992,1.992,0,0,1,29.792,0h3.972A1.992,1.992,0,0,1,35.75,1.986V19.861A27.808,27.808,0,0,1,7.945,47.667Zm47.667,7.944a27.783,27.783,0,0,1-24.293-14.3,31.825,31.825,0,0,0,7.324-13.357A27.814,27.814,0,0,1,63.556,55.611Z" transform="translate(0 3.972)"/>
      </g>
      <g id="Composant_3_1915" data-name="Composant 3 – 1915" transform="translate(1517 498.953)">
        <rect id="Rectangle_7-27" data-name="Rectangle 7" class="cls-9" width="8.112" height="23.703" rx="3" transform="translate(0 1.333) rotate(-9)"/>
      </g>
      <g id="Composant_3_1916" data-name="Composant 3 – 1916" transform="translate(1522.551 527.363) rotate(-1)">
        <rect id="Rectangle_7-28" data-name="Rectangle 7" class="cls-9" width="8.112" height="23.703" rx="3" transform="translate(0 1.333) rotate(-9)"/>
      </g>
      <g id="Composant_3_1917" data-name="Composant 3 – 1917" transform="translate(1527.485 555.103)">
        <rect id="Rectangle_7-29" data-name="Rectangle 7" class="cls-9" width="8.112" height="23.703" rx="3" transform="translate(0 1.333) rotate(-9)"/>
      </g>
    </g>
    <g id="Groupe_1" data-name="Groupe 1">
      <g id="Groupe_de_masques_4-5" data-name="Groupe de masques 4" class="cls-11" transform="translate(1552.209 498.953) rotate(-180)">
        <path id="seedling-solid-5" data-name="seedling-solid" class="cls-12" d="M7.945,47.667H0A27.808,27.808,0,0,1,27.806,19.861V1.986A1.992,1.992,0,0,1,29.792,0h3.972A1.992,1.992,0,0,1,35.75,1.986V19.861A27.808,27.808,0,0,1,7.945,47.667Zm47.667,7.944a27.783,27.783,0,0,1-24.293-14.3,31.825,31.825,0,0,0,7.324-13.357A27.814,27.814,0,0,1,63.556,55.611Z" transform="translate(0 3.972)"/>
      </g>
      <g id="Composant_3_1927" data-name="Composant 3 – 1927" transform="translate(1517 498.953)">
        <rect id="Rectangle_7-30" data-name="Rectangle 7" class="cls-12" width="8.112" height="23.703" rx="3" transform="translate(0 1.333) rotate(-9)"/>
      </g>
      <g id="Composant_3_1928" data-name="Composant 3 – 1928" transform="translate(1522.551 527.363) rotate(-1)">
        <rect id="Rectangle_7-31" data-name="Rectangle 7" class="cls-12" width="8.112" height="23.703" rx="3" transform="translate(0 1.333) rotate(-9)"/>
      </g>
      <g id="Composant_3_1929" data-name="Composant 3 – 1929" transform="translate(1527.485 555.103)">
        <rect id="Rectangle_7-32" data-name="Rectangle 7" class="cls-12" width="8.112" height="23.703" rx="3" transform="translate(0 1.333) rotate(-9)"/>
      </g>
      <g id="Composant_3_1930" data-name="Composant 3 – 1930" transform="matrix(0.966, 0.259, -0.259, 0.966, 1533.887, 582.542)">
        <rect id="Rectangle_7-33" data-name="Rectangle 7" class="cls-12" width="8.112" height="23.703" rx="3" transform="translate(0 1.333) rotate(-9)"/>
      </g>
      <g id="Composant_3_1931" data-name="Composant 3 – 1931" transform="translate(1528.966 609.566) rotate(30)">
        <rect id="Rectangle_7-34" data-name="Rectangle 7" class="cls-12" width="8.112" height="23.703" rx="3" transform="translate(0 1.333) rotate(-9)"/>
      </g>
      <g id="Composant_3_1932" data-name="Composant 3 – 1932" transform="translate(1517.314 636.786) rotate(25)">
        <rect id="Rectangle_7-35" data-name="Rectangle 7" class="cls-12" width="8.112" height="23.703" rx="3" transform="translate(0 1.333) rotate(-9)"/>
      </g>
      <g id="Composant_3_1933" data-name="Composant 3 – 1933" transform="translate(1507.337 664.111) rotate(25)">
        <rect id="Rectangle_7-36" data-name="Rectangle 7" class="cls-12" width="8.112" height="23.703" rx="3" transform="translate(0 1.333) rotate(-9)"/>
      </g>
      <g id="Composant_3_1934" data-name="Composant 3 – 1934" transform="translate(1499.344 691.437) rotate(22)">
        <rect id="Rectangle_7-37" data-name="Rectangle 7" class="cls-12" width="8.112" height="23.703" rx="3" transform="translate(0 1.333) rotate(-9)"/>
      </g>
      <g id="Composant_3_1935" data-name="Composant 3 – 1935" transform="matrix(1, -0.017, 0.017, 1, 1497.911, 775.574)">
        <rect id="Rectangle_7-38" data-name="Rectangle 7" class="cls-12" width="8.112" height="23.703" rx="3" transform="translate(0 1.333) rotate(-9)"/>
      </g>
      <g id="Composant_3_1936" data-name="Composant 3 – 1936" transform="matrix(1, -0.017, 0.017, 1, 1503.892, 802.915)">
        <rect id="Rectangle_7-39" data-name="Rectangle 7" class="cls-12" width="8.112" height="23.703" rx="3" transform="translate(0 1.333) rotate(-9)"/>
      </g>
      <g id="Composant_3_1937" data-name="Composant 3 – 1937" transform="translate(1509.339 829.869) rotate(3)">
        <rect id="Rectangle_7-40" data-name="Rectangle 7" class="cls-12" width="8.112" height="23.703" rx="3" transform="translate(0 1.333) rotate(-9)"/>
      </g>
      <g id="Composant_3_1938" data-name="Composant 3 – 1938" transform="matrix(0.974, 0.225, -0.225, 0.974, 1513.023, 856.701)">
        <rect id="Rectangle_7-41" data-name="Rectangle 7" class="cls-12" width="8.112" height="23.703" rx="3" transform="translate(0 1.333) rotate(-9)"/>
      </g>
      <rect id="Rectangle_7-42" data-name="Rectangle 7" class="cls-12" width="8.112" height="23.703" rx="3" transform="translate(1493.317 720.404) rotate(2)"/>
      <rect id="Rectangle_7-43" data-name="Rectangle 7" class="cls-12" width="8.112" height="23.703" rx="3" transform="matrix(0.996, -0.087, 0.087, 0.996, 1494.069, 749.314)"/>
    </g>
  </g>
  <g id="papillons" transform="translate(-1375.48 122.578)">
    <g id="Groupe_de_masques_15" data-name="Groupe de masques 15" class="cls-13" transform="matrix(0.985, 0.174, -0.174, 0.985, 974.385, -390.085)">
      <g id="msn" transform="translate(591.715 583)">
        <g id="Groupe_7" data-name="Groupe 7" transform="translate(0)">
          <g id="Groupe_6" data-name="Groupe 6">
            <path id="Tracé_9" data-name="Tracé 9" class="cls-7" d="M27.055,0c-4.773,0-6.664,4.161-6.664,11.786,0,9.245,9.424,14.438,9.349,14.365.075.073-3.251-1.315-5.789-2.421-3.868,1.648-5.6,6.28-5.6,6.28s-3.229,7.484,3.93,7.706c7.161,0,10.5-10.516,11.522-14.019C40.256,1.546,27.055,0,27.055,0Z" transform="translate(-17.626)"/>
          </g>
        </g>
        <g id="Groupe_9" data-name="Groupe 9" transform="translate(13.722 10.553)">
          <g id="Groupe_8" data-name="Groupe 8">
            <path id="Tracé_10" data-name="Tracé 10" class="cls-7" d="M82.725,39.531c-3.885-1.153-8.981,10.332-10.089,12.854s-5.914,11.871-2.51,12.951c3.3.589,5.844-6.039,6.185-10.509C83.533,47.065,84.49,40.055,82.725,39.531Z" transform="translate(-68.925 -39.45)"/>
          </g>
        </g>
      </g>
    </g>
    <g id="Groupe_de_masques_16" data-name="Groupe de masques 16" class="cls-14" transform="translate(1351.3 -345.923) rotate(26)">
      <g id="msn-2" data-name="msn" transform="translate(591.715 583)">
        <g id="Groupe_11" data-name="Groupe 11" transform="translate(0)">
          <g id="Groupe_10" data-name="Groupe 10">
            <path id="Tracé_11" data-name="Tracé 11" class="cls-15" d="M27.055,0c-4.773,0-6.664,4.161-6.664,11.786,0,9.245,9.424,14.438,9.349,14.365.075.073-3.251-1.315-5.789-2.421-3.868,1.648-5.6,6.28-5.6,6.28s-3.229,7.484,3.93,7.706c7.161,0,10.5-10.516,11.522-14.019C40.256,1.546,27.055,0,27.055,0Z" transform="translate(-17.626)"/>
          </g>
        </g>
        <g id="Groupe_13" data-name="Groupe 13" transform="translate(13.722 10.553)">
          <g id="Groupe_12" data-name="Groupe 12">
            <path id="Tracé_12" data-name="Tracé 12" class="cls-15" d="M82.725,39.531c-3.885-1.153-8.981,10.332-10.089,12.854s-5.914,11.871-2.51,12.951c3.3.589,5.844-6.039,6.185-10.509C83.533,47.065,84.49,40.055,82.725,39.531Z" transform="translate(-68.925 -39.45)"/>
          </g>
        </g>
      </g>
    </g>
    <g id="Groupe_de_masques_17" data-name="Groupe de masques 17" class="cls-16" transform="translate(1172.218 -662.689) rotate(30)">
      <g id="butterfly-wings-couple" transform="translate(876 508.689)">
        <g id="Groupe_14" data-name="Groupe 14" transform="translate(0 0)">
          <path id="Tracé_13" data-name="Tracé 13" class="cls-17" d="M65.2,10.648c-3.658-2.86-20.346,3.5-21.061,12a9.67,9.67,0,0,0,2.124,7.045,10,10,0,0,0-2.686,5.959c-.731,7.764,14.454,12.817,17.211,10.268,1.821-1.685,1.16-8.436-1.431-13.3C66.357,28.419,68.393,13.152,65.2,10.648Z" transform="translate(-18.657 -9.954)"/>
          <path id="Tracé_14" data-name="Tracé 14" class="cls-17" d="M20.41,29.693a9.682,9.682,0,0,0,2.123-7.045c-.716-8.5-17.4-14.859-21.06-12-3.2,2.5-1.163,17.771,5.841,21.967-2.591,4.865-3.251,11.617-1.431,13.3,2.756,2.549,17.942-2.506,17.211-10.268A9.994,9.994,0,0,0,20.41,29.693Z" transform="translate(0.001 -9.954)"/>
        </g>
      </g>
    </g>
    <g id="Groupe_de_masques_18" data-name="Groupe de masques 18" class="cls-18" transform="translate(966.465 -770.559) rotate(23)">
      <g id="butterfly-wings-couple-2" data-name="butterfly-wings-couple" transform="translate(876 508.689)">
        <g id="Groupe_15" data-name="Groupe 15" transform="translate(0 0)">
          <path id="Tracé_15" data-name="Tracé 15" class="cls-7" d="M65.2,10.648c-3.658-2.86-20.346,3.5-21.061,12a9.67,9.67,0,0,0,2.124,7.045,10,10,0,0,0-2.686,5.959c-.731,7.764,14.454,12.817,17.211,10.268,1.821-1.685,1.16-8.436-1.431-13.3C66.357,28.419,68.393,13.152,65.2,10.648Z" transform="translate(-18.657 -9.954)"/>
          <path id="Tracé_16" data-name="Tracé 16" class="cls-7" d="M20.41,29.693a9.682,9.682,0,0,0,2.123-7.045c-.716-8.5-17.4-14.859-21.06-12-3.2,2.5-1.163,17.771,5.841,21.967-2.591,4.865-3.251,11.617-1.431,13.3,2.756,2.549,17.942-2.506,17.211-10.268A9.994,9.994,0,0,0,20.41,29.693Z" transform="translate(0.001 -9.954)"/>
        </g>
      </g>
    </g>
    <g id="Groupe_de_masques_19" data-name="Groupe de masques 19" class="cls-19" transform="matrix(0.985, 0.174, -0.174, 0.985, 1243.646, -798.653)">
      <g id="msn-3" data-name="msn" transform="translate(594.432 583)">
        <g id="Groupe_17" data-name="Groupe 17" transform="translate(0)">
          <g id="Groupe_16" data-name="Groupe 16">
            <path id="Tracé_17" data-name="Tracé 17" class="cls-12" d="M32.49,0c-7.525,0-10.5,6.558-10.5,18.579,0,14.573,14.856,22.759,14.737,22.644.119.115-5.124-2.073-9.126-3.816-6.1,2.6-8.825,9.9-8.825,9.9S13.68,59.1,24.965,59.453c11.289,0,16.558-16.576,18.163-22.1C53.3,2.438,32.49,0,32.49,0Z" transform="translate(-17.626)"/>
          </g>
        </g>
        <g id="Groupe_19" data-name="Groupe 19" transform="translate(21.63 16.634)">
          <g id="Groupe_18" data-name="Groupe 18">
            <path id="Tracé_18" data-name="Tracé 18" class="cls-12" d="M90.677,39.578c-6.124-1.817-14.157,16.286-15.9,20.262s-9.323,18.713-3.957,20.415c5.21.929,9.211-9.52,9.75-16.565C91.952,51.454,93.461,40.4,90.677,39.578Z" transform="translate(-68.925 -39.45)"/>
          </g>
        </g>
      </g>
    </g>
    <g id="Groupe_de_masques_14" data-name="Groupe de masques 14" class="cls-14" transform="matrix(0.985, 0.174, -0.174, 0.985, 917.743, -158.085)">
      <g id="msn-4" data-name="msn" transform="translate(591.715 583)">
        <g id="Groupe_3" data-name="Groupe 3" transform="translate(0)">
          <g id="Groupe_2" data-name="Groupe 2">
            <path id="Tracé_7" data-name="Tracé 7" class="cls-15" d="M27.055,0c-4.773,0-6.664,4.161-6.664,11.786,0,9.245,9.424,14.438,9.349,14.365.075.073-3.251-1.315-5.789-2.421-3.868,1.648-5.6,6.28-5.6,6.28s-3.229,7.484,3.93,7.706c7.161,0,10.5-10.516,11.522-14.019C40.256,1.546,27.055,0,27.055,0Z" transform="translate(-17.626)"/>
          </g>
        </g>
        <g id="Groupe_5" data-name="Groupe 5" transform="translate(13.722 10.553)">
          <g id="Groupe_4" data-name="Groupe 4">
            <path id="Tracé_8" data-name="Tracé 8" class="cls-15" d="M82.725,39.531c-3.885-1.153-8.981,10.332-10.089,12.854s-5.914,11.871-2.51,12.951c3.3.589,5.844-6.039,6.185-10.509C83.533,47.065,84.49,40.055,82.725,39.531Z" transform="translate(-68.925 -39.45)"/>
          </g>
        </g>
      </g>
    </g>
  </g>
</svg>
